<?xml version="1.0" encoding="UTF-8" standalone="no"?>
<!-- Created with Inkscape (http://www.inkscape.org/) -->

<svg
   xmlns:dc="http://purl.org/dc/elements/1.1/"
   xmlns:cc="http://creativecommons.org/ns#"
   xmlns:rdf="http://www.w3.org/1999/02/22-rdf-syntax-ns#"
   xmlns:svg="http://www.w3.org/2000/svg"
   xmlns="http://www.w3.org/2000/svg"
   xmlns:sodipodi="http://sodipodi.sourceforge.net/DTD/sodipodi-0.dtd"
   xmlns:inkscape="http://www.inkscape.org/namespaces/inkscape"
   id="svg3487"
   version="1.1"
   inkscape:version="0.91 r13725"
   width="297"
   height="103"
   viewBox="0 0 297 103"
   sodipodi:docname="Logo.svg">
  <metadata
     id="metadata3493">
    <rdf:RDF>
      <cc:Work
         rdf:about="">
        <dc:format>image/svg+xml</dc:format>
        <dc:type
           rdf:resource="http://purl.org/dc/dcmitype/StillImage" />
        <dc:title></dc:title>
      </cc:Work>
    </rdf:RDF>
  </metadata>
  <defs
     id="defs3491" />
  <sodipodi:namedview
     pagecolor="#ffffff"
     bordercolor="#666666"
     borderopacity="1"
     objecttolerance="10"
     gridtolerance="10"
     guidetolerance="10"
     inkscape:pageopacity="0"
     inkscape:pageshadow="2"
     inkscape:window-width="1366"
     inkscape:window-height="714"
     id="namedview3489"
     showgrid="false"
     inkscape:zoom="2.1481481"
     inkscape:cx="210.53345"
     inkscape:cy="18.776758"
     inkscape:window-x="0"
     inkscape:window-y="0"
     inkscape:window-maximized="1"
     inkscape:current-layer="layer2" />
  <g
     inkscape:groupmode="layer"
     id="layer1"
     inkscape:label="Bottom">
    <path
       style="fill:#abab28;fill-opacity:1"
       d="m 151.26244,91.95547 c 0,-0.827 0.9,-3.18283 2,-5.235201 2.56612,-4.78781 2.54827,-5.05156 -0.91908,-13.5807 -4.54485,-11.17959 -4.62277,-11.68048 -1.81718,-11.68048 2.07747,0 2.70762,0.92556 4.70779,6.91474 1.61851,4.84637 2.71596,6.75868 3.66887,6.39301 0.74778,-0.28695 1.3596,-0.91128 1.3596,-1.3874 0,-0.47613 1.17768,-3.35298 2.61707,-6.39302 1.80846,-3.81952 3.19885,-5.52733 4.5,-5.52733 1.03561,0 1.88293,0.54097 1.88293,1.20216 0,0.66119 -3.254,7.86119 -7.23111,16 -5.25867,10.761411 -7.71362,14.797841 -9,14.797841 -0.97289,0 -1.76889,-0.67663 -1.76889,-1.50362 z m -97,-9.761541 c 0,-0.77235 1.51347,-4.51614 3.36327,-8.31955 5.2694,-10.83453 7.63673,-16.21614 7.63673,-17.36043 0,-0.580169 0.41425,-1.054859 0.92055,-1.054859 0.5063,0 1.21705,-1.35 1.57945,-3 0.3624,-1.65 1.06036,-3 1.55102,-3 0.49065,0 2.74953,3.9375 5.01973,8.749999 2.27019,4.8125 5.65799,11.97734 7.52844,15.92187 4.01638,8.47002 4.09679,9.09029 1.1591,8.94159 -1.5467,-0.0783 -2.88398,-1.35362 -4.31326,-4.11346 l -2.07154,-4 -6.93674,-0.25411 -6.93675,-0.25411 -2.12121,4.25411 c -2.10499,4.22157 -6.37879,6.55917 -6.37879,3.48895 z m 20,-13.24574 c 0,-1.16012 -4.27059,-9.4891 -4.86543,-9.4891 -0.35485,0 -1.13879,1.4625 -1.74209,3.25 -0.60329,1.7875 -1.43655,4.0375 -1.85168,5 -0.65672,1.52265 -0.15626,1.75 3.85221,1.75 2.53385,0 4.60699,-0.2299 4.60699,-0.5109 z m 14.59817,12.61937 c -1.86388,-2.05957 -1.44577,-4.10847 0.83841,-4.10847 0.72519,0 1.87874,0.675 2.56342,1.5 1.55535,1.87407 4.39401,1.93511 5.89481,0.12675 1.65348,-1.99232 0.53063,-3.95757 -3.16084,-5.53219 -3.84191,-1.63878 -7.73397,-4.97168 -7.73397,-6.62285 0,-0.64882 1.10352,-2.37037 2.45226,-3.82569 2.86257,-3.08877 9.4171,-3.71329 11.58292,-1.10364 1.9389,2.33624 -0.24764,4.13747 -3.32208,2.73667 -2.38895,-1.08848 -5.7131,-0.08553 -5.7131,1.72373 0,0.49688 2.1375,1.96899 4.75,3.27138 2.6125,1.30238 5.41576,3.55286 6.22947,5.00107 1.35405,2.4099 1.30308,2.87012 -0.60125,5.42894 -1.71289,2.30159 -2.95622,2.84806 -7.03334,3.09129 -3.91265,0.23341 -5.32935,-0.12083 -6.74671,-1.68699 z m 20.8925,-0.29203 c -0.31943,-1.27404 -0.448,-6.14144 -0.28572,-10.81644 0.27732,-7.98913 0.43236,-8.51948 2.57963,-8.82408 2.27323,-0.32247 2.28317,-0.27032 2,10.48814 -0.24427,9.28062 -0.52742,10.85874 -1.99885,11.14053 -1.10948,0.21247 -1.91917,-0.48894 -2.29506,-1.98815 z m 13.176,1.51689 c -0.36667,-0.36666 -0.66667,-5.31666 -0.66667,-11 0,-9.56193 0.1449,-10.33333 1.94098,-10.33333 1.06754,0 2.22208,0.45483 2.56565,1.01072 0.3954,0.63977 1.41627,0.45626 2.78152,-0.5 3.012,-2.10968 9.01611,-1.93699 11.05686,0.31802 1.30165,1.4383 1.65499,3.90921 1.65499,11.57332 0,8.7412 -0.1802,9.71018 -1.75,9.41042 -1.46068,-0.27892 -1.79889,-1.64713 -2.04571,-8.27594 -0.16264,-4.36798 -0.78024,-8.5256 -1.37245,-9.23916 -1.7113,-2.06199 -6.26777,-1.52671 -8.65753,1.01707 -1.81595,1.933 -2.17431,3.49873 -2.17431,9.5 0,5.32129 -0.34593,7.18555 -1.33333,7.18555 -0.73334,0 -1.63334,-0.3 -2,-0.66667 z m 50.92222,-2.41005 c -2.07488,-2.46586 -2.58889,-4.13249 -2.58889,-8.39425 0,-4.48778 0.4527,-5.80214 2.90121,-8.42327 3.30534,-3.53838 8.13648,-4.16852 11.87628,-1.54906 l 2.22251,1.55671 0,-8.056709 c 0,-7.92715 0.0402,-8.0567 2.5,-8.0567 l 2.5,0 0,17.531389 c 0,15.34607 -0.205,17.61005 -1.64461,18.16248 -0.95277,0.36561 -2.12367,-0.0241 -2.78342,-0.92634 -0.98411,-1.34585 -1.39798,-1.36792 -3.04653,-0.16248 -1.04923,0.76722 -3.58169,1.39495 -5.62768,1.39495 -2.92629,0 -4.27233,-0.65644 -6.30887,-3.07672 z m 12.85441,-3.14579 c 3.55126,-5.07014 0.82801,-12.77749 -4.5147,-12.77749 -2.26409,0 -3.42285,0.76241 -4.93956,3.25 -2.51191,4.11983 -2.49619,5.83555 0.0835,9.11514 2.64659,3.3646 7.16366,3.56337 9.37072,0.41235 z m 14.8067,5.55584 c -0.91541,-0.36616 -1.25,-4.19166 -1.25,-14.29166 0,-16.561519 -0.54264,-20.041669 -3.125,-20.041669 -1.73724,0 -1.875,-0.95574 -1.875,-13.00847 0,-12.75815 0.0385,-12.98444 2,-11.75946 1.80763,1.12889 2,2.33203 2,12.50848 l 0,11.25945 2.5,0 c 2.45833,0 2.5,0.13333 2.5,8 0,4.399999 0.36399,7.999999 0.80887,7.999999 0.44488,0 1.68238,-0.66069 2.75,-1.4682 2.87915,-2.17768 9.04768,-1.92525 11.44113,0.4682 1.7193,1.7193 2,3.33333 2,11.5 0,8.83333 -0.14035,9.5 -2,9.5 -1.78422,0 -2,-0.66667 -2,-6.179 0,-3.39845 -0.5404,-7.67345 -1.20089,-9.5 -1.01341,-2.80253 -1.69174,-3.321 -4.34501,-3.321 -4.82758,0 -6.31269,2.44226 -6.65576,10.94533 -0.28871,7.15591 -0.90752,8.44433 -3.54834,7.388 z m 42.75,-1.39235 c 0,-0.58246 0.45,-0.7809 1,-0.44098 0.55,0.33992 1,0.81648 1,1.05902 0,0.24254 -0.45,0.44098 -1,0.44098 -0.55,0 -1,-0.47656 -1,-1.05902 z m -13.62206,-9.69098 C 228.0349,63.556679 219.24458,45.47488 213.74694,36.95909 209.62761,30.57828 201.82359,22.82263 197.05228,20.36789 192.59089,18.0726 188.6092,17.94053 184.5732,19.95395 c -3.72491,1.85823 -15.60941,14.35202 -17.6448,18.54942 -4.18149,8.62307 -5.02443,9.44632 -9.99732,9.76371 -4.16748,0.266 -4.89894,0.0273 -5.36372,-1.75 -0.296,-1.13189 -0.88321,-2.05799 -1.30492,-2.05799 -0.42171,0 -1.03116,-0.7875 -1.35434,-1.75 -1.38727,-4.1316 -7.11351,-10.91614 -10.846,-12.85053 -4.21159,-2.18268 -7.13,-1.68108 -10.76667,1.85053 -3.43367,3.33448 -10.03299,12.92433 -10.03299,14.57952 0,0.50907 -0.64825,1.46359 -1.44056,2.12115 -0.79231,0.65756 -1.22183,1.76556 -0.95449,2.46223 0.68592,1.78749 -2.01568,3.75045 -4.07442,2.96044 -1.2714,-0.48788 -1.57713,-1.39033 -1.16653,-3.44335 0.31661,-1.58304 -0.0988,-4.09562 -0.96376,-5.82951 -1.60759,-3.22249 -9.00123,-10.10048 -10.85773,-10.10048 -2.22922,0 -5.81334,3.38454 -9.21449,8.7014 -3.95767,6.18684 -5.50245,6.52101 -2.44557,0.52904 4.82294,-9.45375 10.26623,-12.83604 15.79457,-9.81424 3.28369,1.79488 7.32298,5.1235 7.32298,6.03458 0,0.34661 0.97242,1.94548 2.16094,3.55304 l 2.16095,2.92283 3.04496,-6.21333 c 1.67472,-3.41732 5.23229,-8.35082 7.90571,-10.96332 4.33151,-4.23282 5.34728,-4.75 9.32928,-4.75 6.55908,0 12.8853,4.74006 19.06647,14.28598 l 3.16832,4.89299 1.4261,-2.33948 c 0.78435,-1.28672 3.49961,-5.7412 6.03391,-9.89885 5.17233,-8.4855 13.13011,-16.9662 18.15952,-19.35281 4.50874,-2.13954 15.00667,-2.03053 19.54384,0.20295 6.6321,3.26471 11.61746,6.99872 15.55337,11.64938 5.41992,6.40415 14.62826,20.47533 19.14957,29.26228 3.58296,6.963309 6.29706,9.342519 6.29706,5.520069 0,-0.97763 0.70052,-2.777619 1.5567,-3.999999 1.3124,-1.87372 2.49154,-2.22251 7.51342,-2.22251 l 5.95672,0 -1.3565,3.25 c -0.74607,1.787499 -1.68289,4.992899 -2.08183,7.123109 -0.39893,2.13021 -1.11169,4.60521 -1.58392,5.5 -0.47223,0.89479 -1.10232,2.41439 -1.40021,3.37689 -0.46637,1.50691 -1.86998,1.75 -10.10438,1.75 -8.22767,0 -9.64085,-0.24433 -10.12206,-1.75 z M 90.27776,47.70909 c 0.008,-0.4125 0.45153,-1.425 0.98468,-2.25 0.78388,-1.21296 0.97231,-1.06944 0.98469,0.75 0.008,1.2375 -0.43469,2.25 -0.98469,2.25 -0.55,0 -0.9931,-0.3375 -0.98468,-0.75 z m 10.25705,-3.25 c 0,-2.475 0.19501,-3.4875 0.43337,-2.25 0.23835,1.2375 0.23835,3.2625 0,4.5 -0.23836,1.2375 -0.43337,0.225 -0.43337,-2.25 z m 3.72763,2.5 c 0,-0.825 0.45,-1.5 1,-1.5 0.55,0 1,0.675 1,1.5 0,0.825 -0.45,1.5 -1,1.5 -0.55,0 -1,-0.675 -1,-1.5 z m 18,-1.87755 c 0,-1.85766 0.675,-3.93776 1.5,-4.62245 1.29654,-1.07603 1.5,-0.6179 1.5,3.37756 0,3.44217 -0.383,4.62244 -1.5,4.62244 -1.03726,0 -1.5,-1.04195 -1.5,-3.37755 z m 14,-4.70578 c 0,-6.02058 0.31898,-7.9778 1.25,-7.66975 0.81934,0.27109 1.35063,3.05606 1.54206,8.08333 0.24258,6.37014 0.0308,7.66975 -1.25,7.66975 -1.26223,0 -1.54206,-1.46682 -1.54206,-8.08333 z m 8.25218,4.58333 c 0.0111,-2.2 0.21589,-2.98225 0.45508,-1.73834 0.23919,1.24391 0.23011,3.04391 -0.0202,4 -0.25027,0.95609 -0.44598,-0.0617 -0.43488,-2.26166 z m 26.74782,-2.5 c 0,-3.3 0.38123,-6 0.84719,-6 0.46595,0 1.33549,-1.0125 1.93232,-2.25 0.8785,-1.82157 1.09802,-0.67907 1.15281,6 0.0624,7.60589 -0.0885,8.25 -1.93232,8.25 -1.77778,0 -2,-0.66667 -2,-6 z m 34.83292,-2.21345 0.33293,-8.21814 1.89484,2.46579 c 1.34568,1.75117 1.90128,4.13224 1.91707,8.2158 0.0205,5.3022 -0.15299,5.75018 -2.22776,5.75235 -2.17797,0.002 -2.23934,-0.26073 -1.91708,-8.2158 z"
       id="path23500-4-3"
       inkscape:connector-curvature="0" />
  </g>
  <path
     style="fill:#2f763b;fill-opacity:1"
     d="m 149.0383,90.3003 c 0,-0.827 0.9,-3.182832 2,-5.235202 2.56612,-4.78781 2.54827,-5.05156 -0.91908,-13.5807 -4.54485,-11.17959 -4.62277,-11.68048 -1.81718,-11.68048 2.07747,0 2.70762,0.92556 4.70779,6.91474 1.61851,4.84637 2.71596,6.75868 3.66887,6.39301 0.74778,-0.28695 1.3596,-0.91128 1.3596,-1.3874 0,-0.47613 1.17768,-3.35298 2.61707,-6.39302 1.80846,-3.81952 3.19885,-5.52733 4.5,-5.52733 1.03561,0 1.88293,0.54097 1.88293,1.20216 0,0.66119 -3.254,7.86119 -7.23111,16 -5.25867,10.76141 -7.71362,14.797842 -9,14.797842 -0.97289,0 -1.76889,-0.67663 -1.76889,-1.50362 z m -97,-9.761542 c 0,-0.77235 1.51347,-4.51614 3.36327,-8.31955 5.2694,-10.83453 7.63673,-16.21614 7.63673,-17.36043 0,-0.58017 0.41425,-1.05486 0.92055,-1.05486 0.5063,0 1.21705,-1.35 1.57945,-3 0.36241,-1.65 1.06036,-3 1.55102,-3 0.49065,0 2.74953,3.9375 5.01973,8.75 2.27019,4.8125 5.65799,11.97734 7.52844,15.92187 4.01638,8.47002 4.09679,9.09029 1.1591,8.94159 -1.5467,-0.0783 -2.88398,-1.35362 -4.31326,-4.11346 l -2.07154,-4 -6.93674,-0.25411 -6.93675,-0.25411 -2.12121,4.25411 c -2.10499,4.22157 -6.37879,6.55917 -6.37879,3.48895 z m 20,-13.24574 c 0,-1.16012 -4.27059,-9.4891 -4.86543,-9.4891 -0.35485,0 -1.13879,1.4625 -1.74208,3.25 -0.6033,1.7875 -1.43656,4.0375 -1.85168,5 -0.65673,1.52265 -0.15627,1.75 3.8522,1.75 2.53385,0 4.60699,-0.2299 4.60699,-0.5109 z m 14.59817,12.61937 c -1.86388,-2.05957 -1.44577,-4.10847 0.83841,-4.10847 0.72519,0 1.87874,0.675 2.56342,1.5 1.55535,1.87407 4.39401,1.93511 5.89481,0.12675 1.65348,-1.99232 0.53063,-3.95757 -3.16084,-5.53219 -3.84191,-1.63878 -7.73397,-4.97168 -7.73397,-6.62285 0,-0.64882 1.10352,-2.37037 2.45226,-3.82569 2.86257,-3.08877 9.4171,-3.71329 11.58292,-1.10364 1.9389,2.33624 -0.24764,4.13747 -3.32208,2.73667 -2.38895,-1.08848 -5.7131,-0.08553 -5.7131,1.72373 0,0.49688 2.1375,1.96899 4.75,3.27138 2.6125,1.30238 5.41576,3.55286 6.22947,5.00107 1.35405,2.4099 1.30308,2.87012 -0.60125,5.42894 -1.71289,2.30159 -2.95622,2.84806 -7.03334,3.09129 -3.91265,0.23341 -5.32935,-0.12083 -6.74671,-1.68699 z m 20.8925,-0.29203 c -0.31943,-1.27404 -0.448,-6.14144 -0.28572,-10.81644 0.27732,-7.98913 0.43236,-8.51948 2.57963,-8.82408 2.27323,-0.32247 2.28317,-0.27032 2,10.48814 -0.24427,9.28062 -0.52742,10.85874 -1.99885,11.14053 -1.10948,0.21247 -1.91917,-0.48894 -2.29506,-1.98815 z m 13.176,1.51689 c -0.36667,-0.36666 -0.66667,-5.31666 -0.66667,-11 0,-9.56193 0.1449,-10.33333 1.94098,-10.33333 1.06754,0 2.22208,0.45483 2.56565,1.01072 0.3954,0.63977 1.41627,0.45626 2.78152,-0.5 3.012,-2.10968 9.01611,-1.93699 11.05686,0.31802 1.30165,1.4383 1.65499,3.90921 1.65499,11.57332 0,8.7412 -0.1802,9.71018 -1.75,9.41042 -1.46068,-0.27892 -1.79889,-1.64713 -2.04571,-8.27594 -0.16264,-4.36798 -0.78024,-8.5256 -1.37245,-9.23916 -1.7113,-2.06199 -6.26777,-1.52671 -8.65753,1.01707 -1.81595,1.933 -2.17431,3.49873 -2.17431,9.5 0,5.32129 -0.34593,7.18555 -1.33333,7.18555 -0.73334,0 -1.63334,-0.3 -2,-0.66667 z m 50.92222,-2.41005 c -2.07488,-2.46586 -2.58889,-4.13249 -2.58889,-8.39425 0,-4.48778 0.4527,-5.80214 2.90121,-8.42327 3.30534,-3.53838 8.13648,-4.16852 11.87628,-1.54906 l 2.22251,1.55671 0,-8.05671 c 0,-7.92715 0.0402,-8.0567 2.5,-8.0567 l 2.5,0 0,17.53139 c 0,15.34607 -0.205,17.61005 -1.64461,18.16248 -0.95277,0.36561 -2.12367,-0.0241 -2.78342,-0.92634 -0.98411,-1.34585 -1.39798,-1.36792 -3.04653,-0.16248 -1.04923,0.76722 -3.58169,1.39495 -5.62768,1.39495 -2.92629,0 -4.27233,-0.65644 -6.30887,-3.07672 z m 12.85441,-3.14579 c 3.55126,-5.07014 0.82801,-12.77749 -4.5147,-12.77749 -2.26409,0 -3.42285,0.76241 -4.93956,3.25 -2.51191,4.11983 -2.49619,5.83555 0.0835,9.11514 2.64659,3.3646 7.16366,3.56337 9.37072,0.41235 z m 14.8067,5.55584 c -0.91541,-0.36616 -1.25,-4.19166 -1.25,-14.29166 0,-16.56152 -0.54264,-20.04167 -3.125,-20.04167 -1.73724,0 -1.875,-0.95574 -1.875,-13.008468 0,-12.75815 0.0385,-12.98444 2,-11.75946 1.80763,1.12889 2,2.33203 2,12.508478 l 0,11.25945 2.5,0 c 2.45833,0 2.5,0.13333 2.5,8 0,4.4 0.36399,8 0.80887,8 0.44488,0 1.68238,-0.66069 2.75,-1.4682 2.87915,-2.17768 9.04768,-1.92525 11.44113,0.4682 1.7193,1.7193 2,3.33333 2,11.5 0,8.83333 -0.14035,9.5 -2,9.5 -1.78422,0 -2,-0.66667 -2,-6.179 0,-3.39845 -0.5404,-7.67345 -1.20089,-9.5 -1.01341,-2.80253 -1.69174,-3.321 -4.34501,-3.321 -4.82758,0 -6.31269,2.44226 -6.65576,10.94533 -0.28871,7.15591 -0.90752,8.44433 -3.54834,7.388 z m 42.75,-1.39235 c 0,-0.58246 0.45,-0.7809 1,-0.44098 0.55,0.33992 1,0.81648 1,1.05902 0,0.24254 -0.45,0.44098 -1,0.44098 -0.55,0 -1,-0.47656 -1,-1.05902 z m -13.62206,-9.69098 c -2.60548,-8.15241 -11.3958,-26.23421 -16.89344,-34.75 -4.11933,-6.380808 -11.92335,-14.136458 -16.69466,-16.591198 -4.46139,-2.29529 -8.44308,-2.42736 -12.47908,-0.41394 -3.72491,1.85823 -15.60941,14.35202 -17.6448,18.549418 -4.18149,8.62307 -5.02443,9.44632 -9.99732,9.76371 -4.16748,0.266 -4.89894,0.0273 -5.36372,-1.75 -0.296,-1.13189 -0.88321,-2.05799 -1.30492,-2.05799 -0.42171,0 -1.03116,-0.7875 -1.35434,-1.75 -1.38727,-4.1316 -7.11351,-10.916138 -10.846,-12.850528 -4.21159,-2.18268 -7.13,-1.68108 -10.76667,1.85053 -3.43367,3.33448 -10.03299,12.924328 -10.03299,14.579518 0,0.50907 -0.64825,1.46359 -1.44056,2.12115 -0.79231,0.65756 -1.22183,1.76556 -0.95449,2.46223 0.68592,1.78749 -2.01568,3.75045 -4.07442,2.96044 -1.2714,-0.48788 -1.57713,-1.39033 -1.16653,-3.44335 0.31661,-1.58304 -0.0988,-4.09562 -0.96376,-5.82951 -1.60759,-3.22249 -9.00123,-10.100478 -10.85773,-10.100478 -2.22922,0 -5.81334,3.384538 -9.21449,8.701398 -3.95767,6.18684 -5.50245,6.52101 -2.44557,0.52904 4.82294,-9.453748 10.26623,-12.836038 15.79457,-9.814238 3.28369,1.794878 7.32298,5.123498 7.32298,6.034578 0,0.34661 0.97242,1.94548 2.16094,3.55304 l 2.16095,2.92283 3.04496,-6.21333 c 1.67472,-3.41732 5.23229,-8.350818 7.90571,-10.963318 4.33151,-4.23282 5.34728,-4.75 9.32928,-4.75 6.55908,0 12.8853,4.74006 19.06647,14.285978 l 3.16832,4.89299 1.4261,-2.33948 c 0.78435,-1.28672 3.49961,-5.741198 6.03391,-9.898848 5.17233,-8.4855 13.13011,-16.9662 18.15952,-19.35281 4.50874,-2.13954 15.00667,-2.03053 19.54384,0.20295 6.6321,3.26471 11.61746,6.99872 15.55337,11.64938 5.41992,6.40415 14.62826,20.475328 19.14957,29.262278 3.58296,6.96331 6.29706,9.34252 6.29706,5.52007 0,-0.97763 0.70052,-2.77762 1.5567,-4 1.3124,-1.87372 2.49154,-2.22251 7.51342,-2.22251 l 5.95672,0 -1.3565,3.25 c -0.74607,1.7875 -1.68289,4.9929 -2.08183,7.12311 -0.39893,2.13021 -1.11169,4.60521 -1.58392,5.5 -0.47223,0.89479 -1.10232,2.41439 -1.40021,3.37689 -0.46637,1.50691 -1.86998,1.75 -10.10438,1.75 -8.22767,0 -9.64085,-0.24433 -10.12206,-1.75 z m -140.36262,-24 c 0.008,-0.4125 0.45153,-1.425 0.98468,-2.25 0.78388,-1.21296 0.97231,-1.06944 0.98469,0.75 0.008,1.2375 -0.43469,2.25 -0.98469,2.25 -0.55,0 -0.9931,-0.3375 -0.98468,-0.75 z m 10.25705,-3.25 c 0,-2.475 0.19501,-3.4875 0.43337,-2.25 0.23835,1.2375 0.23835,3.2625 0,4.5 -0.23836,1.2375 -0.43337,0.225 -0.43337,-2.25 z m 3.72763,2.5 c 0,-0.825 0.45,-1.5 1,-1.5 0.55,0 1,0.675 1,1.5 0,0.825 -0.45,1.5 -1,1.5 -0.55,0 -1,-0.675 -1,-1.5 z m 18,-1.87755 c 0,-1.85766 0.675,-3.93776 1.5,-4.62245 1.29654,-1.07603 1.5,-0.6179 1.5,3.37756 0,3.44217 -0.383,4.62244 -1.5,4.62244 -1.03726,0 -1.5,-1.04195 -1.5,-3.37755 z m 14,-4.70578 c 0,-6.020578 0.31898,-7.977798 1.25,-7.669748 0.81934,0.27109 1.35063,3.056058 1.54206,8.083328 0.24258,6.37014 0.0308,7.66975 -1.25,7.66975 -1.26223,0 -1.54206,-1.46682 -1.54206,-8.08333 z m 8.25218,4.58333 c 0.0111,-2.2 0.21589,-2.98225 0.45508,-1.73834 0.23919,1.24391 0.23011,3.04391 -0.0202,4 -0.25027,0.95609 -0.44598,-0.0617 -0.43488,-2.26166 z m 26.74782,-2.5 c 0,-3.3 0.38123,-6 0.84719,-6 0.46595,0 1.33549,-1.012498 1.93232,-2.249998 0.8785,-1.82157 1.09802,-0.67907 1.15281,5.999998 0.0624,7.60589 -0.0885,8.25 -1.93232,8.25 -1.77778,0 -2,-0.66667 -2,-6 z m 34.83292,-2.21345 0.33293,-8.218138 1.89484,2.46579 c 1.34568,1.751168 1.90128,4.132238 1.91707,8.215798 0.0205,5.3022 -0.15299,5.75018 -2.22776,5.75235 -2.17797,0.002 -2.23934,-0.26073 -1.91708,-8.2158 z"
     id="path23500-4"
     inkscape:connector-curvature="0" />
  <g
     inkscape:groupmode="layer"
     id="layer2"
     inkscape:label="Middle"
     style="display:inline" />
  <g
     inkscape:groupmode="layer"
     id="layer3"
     inkscape:label="Top"
     style="display:inline">
    <path
       style="fill:#072f4b;fill-opacity:1"
       d="m 146,88.49638 c 0,-0.827 0.9,-3.18283 2,-5.2352 2.56612,-4.78781 2.54827,-5.05156 -0.91908,-13.5807 C 142.53607,58.50089 142.45815,58 145.26374,58 c 2.07747,0 2.70762,0.92556 4.70779,6.91474 1.61851,4.84637 2.71596,6.75868 3.66887,6.39301 0.74778,-0.28695 1.3596,-0.91128 1.3596,-1.3874 0,-0.47613 1.17768,-3.35298 2.61707,-6.39302 C 159.42553,59.70781 160.81592,58 162.11707,58 163.15268,58 164,58.54097 164,59.20216 c 0,0.66119 -3.254,7.86119 -7.23111,16 C 151.51022,85.96357 149.05527,90 147.76889,90 146.796,90 146,89.32337 146,88.49638 Z M 49,78.73484 C 49,77.96249 50.51347,74.2187 52.363267,70.41529 57.632664,59.58076 60,54.19915 60,53.05486 60,52.47469 60.414245,52 60.920545,52 61.426844,52 62.137599,50.65 62.5,49 c 0.362401,-1.65 1.060357,-3 1.551014,-3 0.490657,0 2.749536,3.9375 5.019731,8.75 2.270195,4.8125 5.657993,11.97734 7.528441,15.92187 4.016384,8.47002 4.096789,9.09029 1.159098,8.94159 C 76.211589,79.53516 74.874309,78.25984 73.445028,75.5 l -2.07154,-4 L 64.436744,71.24589 57.5,70.99178 55.378785,75.24589 C 53.273796,79.46746 49,81.80506 49,78.73484 Z M 69,65.4891 C 69,64.32898 64.729404,56 64.134564,56 c -0.354851,0 -1.138788,1.4625 -1.742082,3.25 -0.603295,1.7875 -1.436551,4.0375 -1.85168,5 C 59.884079,65.77265 60.384534,66 64.393011,66 66.926855,66 69,65.7701 69,65.4891 Z M 83.598165,78.10847 C 81.734283,76.0489 82.152398,74 84.436572,74 85.161768,74 86.315311,74.675 87,75.5 c 1.555342,1.87407 4.394002,1.93511 5.894808,0.12675 1.65348,-1.99232 0.530623,-3.95757 -3.160847,-5.53219 C 85.892052,68.45578 82,65.12288 82,63.47171 c 0,-0.64882 1.103513,-2.37037 2.452251,-3.82569 2.862575,-3.08877 9.417101,-3.71329 11.582923,-1.10364 1.938903,2.33624 -0.247643,4.13747 -3.322077,2.73667 C 90.324146,60.19057 87,61.19352 87,63.00278 c 0,0.49688 2.1375,1.96899 4.75,3.27138 2.6125,1.30238 5.41576,3.55286 6.229467,5.00107 1.354049,2.4099 1.30308,2.87012 -0.601247,5.42894 -1.712891,2.30159 -2.956227,2.84806 -7.033341,3.09129 -3.912649,0.23341 -5.329358,-0.12083 -6.746714,-1.68699 z M 104.49067,77.81644 C 104.17124,76.5424 104.04267,71.675 104.20495,67 c 0.27732,-7.98913 0.43236,-8.51948 2.57963,-8.82408 2.27323,-0.32247 2.28317,-0.27032 2,10.48814 -0.24427,9.28062 -0.52742,10.85874 -1.99885,11.14053 -1.10948,0.21247 -1.91917,-0.48894 -2.29506,-1.98815 z m 13.176,1.51689 C 117.3,78.96667 117,74.01667 117,68.33333 117,58.7714 117.1449,58 118.94098,58 c 1.06754,0 2.22208,0.45483 2.56565,1.01072 0.3954,0.63977 1.41627,0.45626 2.78152,-0.5 3.012,-2.10968 9.01611,-1.93699 11.05686,0.31802 1.30165,1.4383 1.65499,3.90921 1.65499,11.57332 0,8.7412 -0.1802,9.71018 -1.75,9.41042 -1.46068,-0.27892 -1.79889,-1.64713 -2.04571,-8.27594 -0.16264,-4.36798 -0.78024,-8.5256 -1.37245,-9.23916 -1.7113,-2.06199 -6.26777,-1.52671 -8.65753,1.01707 C 121.35836,65.24745 121,66.81318 121,72.81445 121,78.13574 120.65407,80 119.66667,80 c -0.73334,0 -1.63334,-0.3 -2,-0.66667 z m 50.92222,-2.41005 C 166.51401,74.45742 166,72.79079 166,68.52903 c 0,-4.48778 0.4527,-5.80214 2.90121,-8.42327 3.30534,-3.53838 8.13648,-4.16852 11.87628,-1.54906 L 183,60.11341 183,52.0567 C 183,44.12955 183.0402,44 185.5,44 l 2.5,0 0,17.53139 c 0,15.34607 -0.205,17.61005 -1.64461,18.16248 -0.95277,0.36561 -2.12367,-0.0241 -2.78342,-0.92634 -0.98411,-1.34585 -1.39798,-1.36792 -3.04653,-0.16248 C 179.47621,79.37227 176.94375,80 174.89776,80 c -2.92629,0 -4.27233,-0.65644 -6.30887,-3.07672 z M 181.4433,73.77749 C 184.99456,68.70735 182.27131,61 176.9286,61 c -2.26409,0 -3.42285,0.76241 -4.93956,3.25 -2.51191,4.11983 -2.49619,5.83555 0.0835,9.11514 2.64659,3.3646 7.16366,3.56337 9.37072,0.41235 z M 196.25,79.33333 C 195.33459,78.96717 195,75.14167 195,65.04167 195,48.48015 194.45736,45 191.875,45 190.13776,45 190,44.04426 190,31.99153 c 0,-12.75815 0.0385,-12.98444 2,-11.75946 1.80763,1.12889 2,2.33203 2,12.50848 L 194,44 l 2.5,0 c 2.45833,0 2.5,0.13333 2.5,8 0,4.4 0.36399,8 0.80887,8 0.44488,0 1.68238,-0.66069 2.75,-1.4682 C 205.43802,56.35412 211.60655,56.60655 214,59 c 1.7193,1.7193 2,3.33333 2,11.5 0,8.83333 -0.14035,9.5 -2,9.5 -1.78422,0 -2,-0.66667 -2,-6.179 0,-3.39845 -0.5404,-7.67345 -1.20089,-9.5 C 209.7857,61.51847 209.10737,61 206.4541,61 c -4.82758,0 -6.31269,2.44226 -6.65576,10.94533 -0.28871,7.15591 -0.90752,8.44433 -3.54834,7.388 z M 239,77.94098 c 0,-0.58246 0.45,-0.7809 1,-0.44098 0.55,0.33992 1,0.81648 1,1.05902 C 241,78.80156 240.55,79 240,79 c -0.55,0 -1,-0.47656 -1,-1.05902 z M 225.37794,68.25 C 222.77246,60.09759 213.98214,42.01579 208.4845,33.5 204.36517,27.11919 196.56115,19.36354 191.78984,16.9088 c -4.46139,-2.29529 -8.44308,-2.42736 -12.47908,-0.41394 -3.72491,1.85823 -15.60941,14.35202 -17.6448,18.54942 -4.18149,8.62307 -5.02443,9.44632 -9.99732,9.76371 -4.16748,0.266 -4.89894,0.0273 -5.36372,-1.75 C 146.00892,41.9261 145.42171,41 145,41 c -0.42171,0 -1.03116,-0.7875 -1.35434,-1.75 -1.38727,-4.1316 -7.11351,-10.91614 -10.846,-12.85053 -4.21159,-2.18268 -7.13,-1.68108 -10.76667,1.85053 C 118.59932,31.58448 112,41.17433 112,42.82952 c 0,0.50907 -0.64825,1.46359 -1.44056,2.12115 -0.79231,0.65756 -1.22183,1.76556 -0.95449,2.46223 0.68592,1.78749 -2.01568,3.75045 -4.07442,2.96044 -1.2714,-0.48788 -1.57713,-1.39033 -1.16653,-3.44335 0.31661,-1.58304 -0.0988,-4.09562 -0.96376,-5.82951 C 101.79265,37.87799 94.399005,31 92.542508,31 c -2.229223,0 -5.813338,3.38454 -9.214494,8.7014 -3.957669,6.18684 -5.502449,6.52101 -2.445573,0.52904 C 85.705382,30.77669 91.148676,27.3944 96.677011,30.4162 99.960708,32.21108 104,35.5397 104,36.45078 c 0,0.34661 0.97242,1.94548 2.16094,3.55304 l 2.16095,2.92283 3.04496,-6.21333 c 1.67472,-3.41732 5.23229,-8.35082 7.90571,-10.96332 4.33151,-4.23282 5.34728,-4.75 9.32928,-4.75 6.55908,0 12.8853,4.74006 19.06647,14.28598 l 3.16832,4.89299 1.4261,-2.33948 c 0.78435,-1.28672 3.49961,-5.7412 6.03391,-9.89885 5.17233,-8.4855 13.13011,-16.9662 18.15952,-19.35281 C 180.9649,6.44829 191.46283,6.5573 196,8.79078 c 6.6321,3.26471 11.61746,6.99872 15.55337,11.64938 5.41992,6.40415 14.62826,20.47533 19.14957,29.26228 3.58296,6.96331 6.29706,9.34252 6.29706,5.52007 0,-0.97763 0.70052,-2.77762 1.5567,-4 C 239.8691,49.34879 241.04824,49 246.07012,49 l 5.95672,0 -1.3565,3.25 c -0.74607,1.7875 -1.68289,4.9929 -2.08183,7.12311 -0.39893,2.13021 -1.11169,4.60521 -1.58392,5.5 -0.47223,0.89479 -1.10232,2.41439 -1.40021,3.37689 C 245.13801,69.75691 243.7344,70 235.5,70 c -8.22767,0 -9.64085,-0.24433 -10.12206,-1.75 z M 85.015313,44.25 C 85.023713,43.8375 85.466844,42.825 86,42 86.783874,40.78704 86.972305,40.93056 86.984687,42.75 86.993109,43.9875 86.55,45 86,45 85.45,45 85.006891,44.6625 85.015313,44.25 Z M 95.272364,41 c 0,-2.475 0.195016,-3.4875 0.433369,-2.25 0.238353,1.2375 0.238353,3.2625 0,4.5 C 95.46738,44.4875 95.272364,43.475 95.272364,41 Z M 99,43.5 c 0,-0.825 0.45,-1.5 1,-1.5 0.55,0 1,0.675 1,1.5 0,0.825 -0.45,1.5 -1,1.5 -0.55,0 -1,-0.675 -1,-1.5 z m 18,-1.87755 c 0,-1.85766 0.675,-3.93776 1.5,-4.62245 1.29654,-1.07603 1.5,-0.6179 1.5,3.37756 C 120,43.81973 119.617,45 118.5,45 117.46274,45 117,43.95805 117,41.62245 Z m 14,-4.70578 c 0,-6.02058 0.31898,-7.9778 1.25,-7.66975 0.81934,0.27109 1.35063,3.05606 1.54206,8.08333 C 134.03464,43.70039 133.82286,45 132.54206,45 131.27983,45 131,43.53318 131,36.91667 Z M 139.25218,41.5 c 0.0111,-2.2 0.21589,-2.98225 0.45508,-1.73834 0.23919,1.24391 0.23011,3.04391 -0.0202,4 -0.25027,0.95609 -0.44598,-0.0617 -0.43488,-2.26166 z M 166,39 c 0,-3.3 0.38123,-6 0.84719,-6 0.46595,0 1.33549,-1.0125 1.93232,-2.25 0.8785,-1.82157 1.09802,-0.67907 1.15281,6 0.0624,7.60589 -0.0885,8.25 -1.93232,8.25 -1.77778,0 -2,-0.66667 -2,-6 z m 34.83292,-2.21345 0.33293,-8.21814 1.89484,2.46579 c 1.34568,1.75117 1.90128,4.13224 1.91707,8.2158 0.0205,5.3022 -0.15299,5.75018 -2.22776,5.75235 -2.17797,0.002 -2.23934,-0.26073 -1.91708,-8.2158 z"
       id="path23500"
       inkscape:connector-curvature="0" />
  </g>
</svg>
