<?xml version="1.0" encoding="UTF-8" standalone="no"?>
<!-- Created with Inkscape (http://www.inkscape.org/) -->

<svg
   xmlns:dc="http://purl.org/dc/elements/1.1/"
   xmlns:cc="http://creativecommons.org/ns#"
   xmlns:rdf="http://www.w3.org/1999/02/22-rdf-syntax-ns#"
   xmlns:svg="http://www.w3.org/2000/svg"
   xmlns="http://www.w3.org/2000/svg"
   xmlns:sodipodi="http://sodipodi.sourceforge.net/DTD/sodipodi-0.dtd"
   xmlns:inkscape="http://www.inkscape.org/namespaces/inkscape"
   width="316.79999"
   height="109.86667"
   viewBox="0 0 297 103"
   id="svg3366"
   version="1.1"
   inkscape:version="0.92.1 r15371"
   inkscape:export-filename="/home/alejandro/Documents/company-std/logo-sm.png"
   inkscape:export-xdpi="58.066063"
   inkscape:export-ydpi="58.066063"
   sodipodi:docname="Logo.svg">
  <defs
     id="defs3368" />
  <sodipodi:namedview
     id="base"
     pagecolor="#ffff88"
     bordercolor="#666666"
     borderopacity="1.0"
     inkscape:pageopacity="0"
     inkscape:pageshadow="2"
     inkscape:zoom="1.4"
     inkscape:cx="65.180021"
     inkscape:cy="27.427749"
     inkscape:document-units="px"
     inkscape:current-layer="layer3"
     showgrid="false"
     units="px"
     inkscape:window-width="1366"
     inkscape:window-height="706"
     inkscape:window-x="0"
     inkscape:window-y="34"
     inkscape:window-maximized="1" />
  <metadata
     id="metadata3371">
    <rdf:RDF>
      <cc:Work
         rdf:about="">
        <dc:format>image/svg+xml</dc:format>
        <dc:type
           rdf:resource="http://purl.org/dc/dcmitype/StillImage" />
        <dc:title></dc:title>
      </cc:Work>
    </rdf:RDF>
  </metadata>
  <g
     inkscape:label="Capa 1"
     inkscape:groupmode="layer"
     id="layer1"
     transform="translate(0,-949.3622)"
     style="display:inline">
    <path
       style="fill:#ffffff;fill-opacity:1;stroke:none"
       d="M 36.142857,970.93365 H 280 v 55.71425 l -268.142857,1.4286 z"
       id="rect4769"
       inkscape:connector-curvature="0"
       sodipodi:nodetypes="ccccc" />
  </g>
  <g
     inkscape:groupmode="layer"
     id="layer3"
     inkscape:label="Capa 2"
     transform="translate(0,-261.96063)"
     style="display:inline">
    <g
       id="g3814"
       style="font-style:normal;font-weight:normal;font-size:40px;line-height:125%;font-family:sans-serif;letter-spacing:0px;word-spacing:0px;fill:#000000;fill-opacity:1;stroke:none;stroke-width:1px;stroke-linecap:butt;stroke-linejoin:miter;stroke-opacity:1"
       transform="translate(0,261.96063)" />
    <g
       aria-label="LOGOTIPO"
       transform="matrix(0.93750001,0,0,0.93750001,-1.875,267.58563)"
       style="font-style:normal;font-variant:normal;font-weight:200;font-stretch:normal;font-size:40px;line-height:1.25;font-family:Lato;-inkscape-font-specification:'Lato Ultra-Light';text-align:center;letter-spacing:0px;word-spacing:0px;text-anchor:middle;fill:#000000;fill-opacity:1;stroke:none"
       id="flowRoot22">
      <path
         d="m 76.27875,59.249766 h 13.94 v 0.96 h -15.04 v -28.12 h 1.1 z"
         style="font-style:normal;font-variant:normal;font-weight:200;font-stretch:normal;font-family:Lato;-inkscape-font-specification:'Lato Ultra-Light'"
         id="path30" />
      <path
         d="m 117.74375,46.149766 q 0,3.3 -0.96,5.96 -0.96,2.64 -2.7,4.52 -1.74,1.86 -4.16,2.86 -2.42,1 -5.36,1 -2.9,0 -5.32,-1 -2.42,-1 -4.16,-2.86 -1.74,-1.88 -2.7,-4.52 -0.96,-2.66 -0.96,-5.96 0,-3.28 0.96,-5.94 0.96,-2.66 2.7,-4.52 1.74,-1.88 4.16,-2.9 2.42,-1.02 5.32,-1.02 2.94,0 5.36,1.02 2.42,1 4.16,2.88 1.74,1.86 2.7,4.52 0.96,2.66 0.96,5.96 z m -1.16,0 q 0,-3.14 -0.88,-5.62 -0.86,-2.5 -2.46,-4.24 -1.58,-1.74 -3.8,-2.66 -2.2,-0.92 -4.88,-0.92 -2.64,0 -4.86,0.92 -2.2,0.92 -3.8,2.66 -1.58,1.74 -2.48,4.24 -0.88,2.48 -0.88,5.62 0,3.14 0.88,5.64 0.9,2.48 2.48,4.2 1.6,1.72 3.8,2.64 2.22,0.92 4.86,0.92 2.68,0 4.88,-0.92 2.22,-0.92 3.8,-2.64 1.6,-1.72 2.46,-4.2 0.88,-2.5 0.88,-5.64 z"
         style="font-style:normal;font-variant:normal;font-weight:200;font-stretch:normal;font-family:Lato;-inkscape-font-specification:'Lato Ultra-Light'"
         id="path32" />
      <path
         d="m 147.04812,57.449766 q -2.08,1.42 -4.48,2.26 -2.4,0.82 -5.42,0.82 -3.3,0 -5.94,-1 -2.64,-1.02 -4.5,-2.88 -1.83999,-1.88 -2.81999,-4.54 -0.98001,-2.66 -0.98001,-5.96 0,-3.3 0.96001,-5.94 0.97999,-2.66 2.8,-4.54 1.81999,-1.88 4.39999,-2.88 2.58,-1.02 5.8,-1.02 1.58,0 2.9,0.2 1.34,0.2 2.48001,0.62 1.13999,0.4 2.13999,1.02 1.02,0.62 1.96,1.44 l -0.28,0.42 q -0.16,0.24 -0.46,0.16 -0.2,-0.06 -0.74,-0.52 -0.52,-0.46 -1.54,-0.98 -1.02,-0.54 -2.62,-0.98 -1.58,-0.44 -3.86,-0.44 -2.94,0 -5.32,0.92 -2.36,0.92 -4.04,2.66 -1.65999,1.74 -2.56,4.24 -0.89999,2.48 -0.89999,5.62 0,3.12 0.89999,5.62 0.90001,2.5 2.58001,4.26 1.69999,1.74 4.11999,2.68 2.44,0.92 5.5,0.92 1.38,0 2.56001,-0.18 1.19999,-0.18 2.25999,-0.52 1.06,-0.34 2.06,-0.82 1,-0.48 2.02,-1.1 v -8.28 h -5.94 q -0.14,0 -0.24,-0.1 -0.1,-0.1 -0.1,-0.22 v -0.56 h 7.3 v 9.6 z"
         style="font-style:normal;font-variant:normal;font-weight:200;font-stretch:normal;font-family:Lato;-inkscape-font-specification:'Lato Ultra-Light'"
         id="path34" />
      <path
         d="m 178.75937,46.149766 q 0,3.3 -0.96,5.96 -0.96,2.64 -2.7,4.52 -1.74,1.86 -4.16,2.86 -2.42,1 -5.36,1 -2.9,0 -5.32,-1 -2.42,-1 -4.16,-2.86 -1.74,-1.88 -2.7,-4.52 -0.96,-2.66 -0.96,-5.96 0,-3.28 0.96,-5.94 0.96,-2.66 2.7,-4.52 1.74,-1.88 4.16,-2.9 2.42,-1.02 5.32,-1.02 2.94,0 5.36,1.02 2.42,1 4.16,2.88 1.74,1.86 2.7,4.52 0.96,2.66 0.96,5.96 z m -1.16,0 q 0,-3.14 -0.87999,-5.62 -0.86001,-2.5 -2.46001,-4.24 -1.58,-1.74 -3.8,-2.66 -2.2,-0.92 -4.88,-0.92 -2.64,0 -4.85999,0.92 -2.20001,0.92 -3.80001,2.66 -1.58,1.74 -2.48,4.24 -0.88,2.48 -0.88,5.62 0,3.14 0.88,5.64 0.9,2.48 2.48,4.2 1.6,1.72 3.80001,2.64 2.21999,0.92 4.85999,0.92 2.68,0 4.88,-0.92 2.22,-0.92 3.8,-2.64 1.6,-1.72 2.46001,-4.2 0.87999,-2.5 0.87999,-5.64 z"
         style="font-style:normal;font-variant:normal;font-weight:200;font-stretch:normal;font-family:Lato;-inkscape-font-specification:'Lato Ultra-Light'"
         id="path36" />
      <path
         d="m 201.80875,32.089766 v 0.96 h -10.3 v 27.16 h -1.1 v -27.16 h -10.36 v -0.96 z"
         style="font-style:normal;font-variant:normal;font-weight:200;font-stretch:normal;font-family:Lato;-inkscape-font-specification:'Lato Ultra-Light'"
         id="path38" />
      <path
         d="m 207.91937,60.209766 h -1.1 v -28.12 h 1.1 z"
         style="font-style:normal;font-variant:normal;font-weight:200;font-stretch:normal;font-family:Lato;-inkscape-font-specification:'Lato Ultra-Light'"
         id="path40" />
      <path
         d="m 217.91937,48.449766 v 11.76 h -1.1 v -28.12 h 6.72 q 4.76,0 7.22,2.04 2.48,2.04 2.48,6.12 0,1.78 -0.7,3.3 -0.68,1.5 -1.96,2.6 -1.28,1.08 -3.08,1.7 -1.77999,0.6 -3.96,0.6 z m 0,-0.9 h 5.62 q 1.98,0 3.56,-0.56 1.6,-0.56 2.7,-1.54 1.12,-0.98 1.72,-2.32 0.6,-1.34 0.6,-2.88 0,-3.56 -2.14,-5.42 -2.14,-1.86 -6.44,-1.86 h -5.62 z"
         style="font-style:normal;font-variant:normal;font-weight:200;font-stretch:normal;font-family:Lato;-inkscape-font-specification:'Lato Ultra-Light'"
         id="path42" />
      <path
         d="m 263.91562,46.149766 q 0,3.3 -0.96,5.96 -0.95999,2.64 -2.7,4.52 -1.74,1.86 -4.16,2.86 -2.42,1 -5.36,1 -2.9,0 -5.32,-1 -2.42,-1 -4.16,-2.86 -1.74,-1.88 -2.7,-4.52 -0.96,-2.66 -0.96,-5.96 0,-3.28 0.96,-5.94 0.96,-2.66 2.7,-4.52 1.74,-1.88 4.16,-2.9 2.42,-1.02 5.32,-1.02 2.94,0 5.36,1.02 2.42,1 4.16,2.88 1.74001,1.86 2.7,4.52 0.96,2.66 0.96,5.96 z m -1.16,0 q 0,-3.14 -0.87999,-5.62 -0.86001,-2.5 -2.46001,-4.24 -1.58,-1.74 -3.8,-2.66 -2.2,-0.92 -4.88,-0.92 -2.64,0 -4.85999,0.92 -2.20001,0.92 -3.80001,2.66 -1.58,1.74 -2.48,4.24 -0.88,2.48 -0.88,5.62 0,3.14 0.88,5.64 0.9,2.48 2.48,4.2 1.6,1.72 3.80001,2.64 2.21999,0.92 4.85999,0.92 2.68,0 4.88,-0.92 2.22,-0.92 3.8,-2.64 1.6,-1.72 2.46001,-4.2 0.87999,-2.5 0.87999,-5.64 z"
         style="font-style:normal;font-variant:normal;font-weight:200;font-stretch:normal;font-family:Lato;-inkscape-font-specification:'Lato Ultra-Light'"
         id="path44" />
    </g>
  </g>
</svg>
