<?xml version="1.0" encoding="UTF-8" standalone="no"?>
<!-- Created with Inkscape (http://www.inkscape.org/) -->

<svg
   xmlns:dc="http://purl.org/dc/elements/1.1/"
   xmlns:cc="http://creativecommons.org/ns#"
   xmlns:rdf="http://www.w3.org/1999/02/22-rdf-syntax-ns#"
   xmlns:svg="http://www.w3.org/2000/svg"
   xmlns="http://www.w3.org/2000/svg"
   xmlns:sodipodi="http://sodipodi.sourceforge.net/DTD/sodipodi-0.dtd"
   xmlns:inkscape="http://www.inkscape.org/namespaces/inkscape"
   width="297"
   height="103"
   viewBox="0 0 297 103"
   id="svg3366"
   version="1.1"
   inkscape:version="0.91 r13725"
   inkscape:export-filename="asinydh-logo-trans.png"
   inkscape:export-xdpi="90"
   inkscape:export-ydpi="90"
   sodipodi:docname="drawing.svg">
  <defs
     id="defs3368" />
  <sodipodi:namedview
     id="base"
     pagecolor="#ffff88"
     bordercolor="#666666"
     borderopacity="1.0"
     inkscape:pageopacity="0"
     inkscape:pageshadow="2"
     inkscape:zoom="1.4"
     inkscape:cx="206.25145"
     inkscape:cy="27.427749"
     inkscape:document-units="px"
     inkscape:current-layer="layer1"
     showgrid="false"
     units="px"
     inkscape:window-width="1366"
     inkscape:window-height="714"
     inkscape:window-x="0"
     inkscape:window-y="0"
     inkscape:window-maximized="1" />
  <metadata
     id="metadata3371">
    <rdf:RDF>
      <cc:Work
         rdf:about="">
        <dc:format>image/svg+xml</dc:format>
        <dc:type
           rdf:resource="http://purl.org/dc/dcmitype/StillImage" />
        <dc:title></dc:title>
      </cc:Work>
    </rdf:RDF>
  </metadata>
  <g
     inkscape:label="Capa 1"
     inkscape:groupmode="layer"
     id="layer1"
     transform="translate(0,-949.3622)"
     style="display:inline">
    <path
       style="fill:#ffffff;fill-opacity:1;stroke:none"
       d="m 36.142857,970.93365 243.857143,0 0,55.71425 -268.142857,1.4286 z"
       id="rect4769"
       inkscape:connector-curvature="0"
       sodipodi:nodetypes="ccccc" />
  </g>
  <g
     inkscape:groupmode="layer"
     id="layer3"
     inkscape:label="Capa 2"
     transform="translate(0,-261.96063)"
     style="display:inline">
    <g
       transform="translate(4,271.96063)"
       style="font-style:normal;font-weight:normal;font-size:40px;line-height:125%;font-family:sans-serif;letter-spacing:0px;word-spacing:0px;fill:#000000;fill-opacity:1;stroke:none;stroke-width:1px;stroke-linecap:butt;stroke-linejoin:miter;stroke-opacity:1"
       id="flowRoot3789"
       inkscape:export-xdpi="90"
       inkscape:export-ydpi="90">
      <path
         d="m 56.069102,61.115234 -0.54,0 q -0.27,0 -0.36,-0.3 l -5.85,-14.04 -22.14,0 -5.85,14.04 q -0.09,0.3 -0.42,0.3 l -0.48,0 17.52,-42 0.6,0 17.52,42 z m -28.65,-14.94 21.66,0 -10.35,-24.84 q -0.15,-0.33 -0.27,-0.6 -0.09,-0.3 -0.21,-0.63 -0.12,0.33 -0.24,0.63 -0.09,0.27 -0.24,0.6 l -10.35,24.84 z"
         style="font-style:normal;font-variant:normal;font-weight:200;font-stretch:normal;font-size:60px;font-family:Lato;-inkscape-font-specification:'Lato Ultra-Light';text-align:center;text-anchor:middle"
         id="path3800"
         inkscape:connector-curvature="0" />
      <path
         d="m 83.085977,22.955234 q -0.15,0.18 -0.33,0.18 -0.27,0 -0.84,-0.6 -0.54,-0.63 -1.62,-1.35 -1.05,-0.72 -2.73,-1.32 -1.68,-0.63 -4.2,-0.63 -2.58,0 -4.59,0.81 -1.98,0.78 -3.33,2.1 -1.35,1.32 -2.07,3.06 -0.69,1.74 -0.69,3.63 0,2.43 0.93,4.05 0.96,1.62 2.49,2.73 1.53,1.11 3.51,1.86 1.98,0.72 4.02,1.41 2.04,0.66 4.02,1.41 1.98,0.75 3.51,1.92 1.53,1.14 2.46,2.85 0.96,1.68 0.96,4.23 0,2.58 -0.87,4.83 -0.87,2.22 -2.52,3.9 -1.65,1.65 -4.05,2.61 -2.4,0.96 -5.46,0.96 -2.13,0 -3.81,-0.39 -1.68,-0.36 -3.09,-1.05 -1.38,-0.72 -2.55,-1.71 -1.17,-1.02 -2.25,-2.31 l 0.12,-0.12 q 0.09,-0.09 0.15,-0.12 0.06,-0.06 0.21,-0.06 0.18,0 0.51,0.39 0.36,0.36 0.96,0.96 0.6,0.57 1.44,1.23 0.84,0.66 2.04,1.26 1.2,0.57 2.73,0.96 1.56,0.36 3.54,0.36 2.91,0 5.16,-0.93 2.28,-0.93 3.84,-2.49 1.59,-1.59 2.4,-3.69 0.84,-2.1 0.84,-4.47 0,-1.98 -0.63,-3.42 -0.6,-1.44 -1.65,-2.46 -1.05,-1.05 -2.46,-1.77 -1.38,-0.75 -2.97,-1.32 -1.59,-0.6 -3.24,-1.08 -1.65,-0.51 -3.24,-1.11 -1.59,-0.6 -3,-1.35 -1.38,-0.78 -2.43,-1.86 -1.05,-1.11 -1.68,-2.61 -0.6,-1.53 -0.6,-3.6 0,-2.01 0.75,-3.84 0.75,-1.86 2.19,-3.27 1.44,-1.41 3.54,-2.25 2.13,-0.84 4.86,-0.84 3.06,0 5.4,0.99 2.37,0.99 4.44,3.15 l -0.12,0.18 z"
         style="font-style:normal;font-variant:normal;font-weight:200;font-stretch:normal;font-size:60px;font-family:Lato;-inkscape-font-specification:'Lato Ultra-Light';text-align:center;text-anchor:middle"
         id="path3802"
         inkscape:connector-curvature="0" />
      <path
         d="m 96.683477,61.115234 -0.72,0 0,-42 0.72,0 0,42 z"
         style="font-style:normal;font-variant:normal;font-weight:200;font-stretch:normal;font-size:60px;font-family:Lato;-inkscape-font-specification:'Lato Ultra-Light';text-align:center;text-anchor:middle"
         id="path3804"
         inkscape:connector-curvature="0" />
      <path
         d="m 112.5816,19.115234 q 0.27,0 0.42,0.24 l 29.73,40.47 q -0.03,-0.15 -0.03,-0.3 0,-0.18 0,-0.33 l 0,-40.08 0.6,0 0,42 -0.18,0 q -0.18,0 -0.33,-0.21 l -29.88,-40.65 q 0.03,0.18 0.03,0.39 0,0.18 0,0.33 l 0,40.14 -0.6,0 0,-42 0.24,0 0,0 z"
         style="font-style:normal;font-variant:normal;font-weight:200;font-stretch:normal;font-size:60px;font-family:Lato;-inkscape-font-specification:'Lato Ultra-Light';text-align:center;text-anchor:middle"
         id="path3806"
         inkscape:connector-curvature="0" />
      <path
         d="m 168.07316,43.265234 0,17.85 -0.72,0 0,-17.85 -15.66,-24.15 0.6,0 q 0.27,0 0.42,0.24 l 14.13,21.9 q 0.24,0.39 0.45,0.75 0.24,0.33 0.42,0.69 0.15,-0.36 0.39,-0.69 0.24,-0.36 0.48,-0.75 l 14.13,-21.9 q 0.15,-0.24 0.42,-0.24 l 0.6,0 -15.66,24.15 z"
         style="font-style:normal;font-variant:normal;font-weight:200;font-stretch:normal;font-size:60px;font-family:Lato;-inkscape-font-specification:'Lato Ultra-Light';text-align:center;text-anchor:middle"
         id="path3808"
         inkscape:connector-curvature="0" />
      <path
         d="m 226.97629,39.875234 q 0,4.92 -1.47,8.85 -1.47,3.93 -4.14,6.69 -2.67,2.76 -6.39,4.23 -3.72,1.47 -8.25,1.47 l -15.48,0 0,-42.45 15.48,0 q 4.53,0 8.25,1.47 3.72,1.47 6.39,4.23 2.67,2.76 4.14,6.69 1.47,3.93 1.47,8.82 z m -3.18,0 q 0,-4.44 -1.23,-7.92 -1.23,-3.48 -3.48,-5.88 -2.22,-2.4 -5.37,-3.66 -3.15,-1.26 -6.99,-1.26 l -12.39,0 0,37.47 12.39,0 q 3.84,0 6.99,-1.26 3.15,-1.26 5.37,-3.66 2.25,-2.4 3.48,-5.88 1.23,-3.48 1.23,-7.95 z"
         style="font-style:normal;font-variant:normal;font-weight:300;font-stretch:normal;font-family:Lato;-inkscape-font-specification:'Lato Light'"
         id="path3810"
         inkscape:connector-curvature="0" />
      <path
         d="m 269.59223,61.115234 -3.09,0 0,-20.34 -26.58,0 0,20.34 -3.09,0 0,-42.45 3.09,0 0,19.8 26.58,0 0,-19.8 3.09,0 0,42.45 z"
         style="font-style:normal;font-variant:normal;font-weight:300;font-stretch:normal;font-family:Lato;-inkscape-font-specification:'Lato Light'"
         id="path3812"
         inkscape:connector-curvature="0" />
    </g>
    <g
       id="g3814"
       style="font-style:normal;font-weight:normal;font-size:40px;line-height:125%;font-family:sans-serif;letter-spacing:0px;word-spacing:0px;fill:#000000;fill-opacity:1;stroke:none;stroke-width:1px;stroke-linecap:butt;stroke-linejoin:miter;stroke-opacity:1"
       transform="translate(0,261.96063)" />
  </g>
</svg>
